# xmcd
#
# Track frame offsets:
#	150
#	44929
#	137267
#	164307
#	203951
#	239827
#
# Disc length: 3450 seconds
#
# Revision: 1
# Processed by: cddbd v1.5.2PL0 Copyright (c) Steve Scherf et al.
# Submitted via: audiograbber 1.83.01
#
DISCID=580d7806
DTITLE=Grateful Dead - 72-11-17 Century II Convention Hall, Wichita KS
DYEAR=1900
DGENRE=
TTITLE0=Truckin'
TTITLE1=The Other One
TTITLE2=Brokedown Palace
TTITLE3=Sugar Magnolia
TTITLE4=Uncle John's Band
TTITLE5=Johnny B Goode
EXTD=
EXTT0=
EXTT1=
EXTT2=
EXTT3=
EXTT4=
EXTT5=
PLAYORDER=
